<svg width="512" height="512" viewBox="0 0 512 512" fill="none" xmlns="http://www.w3.org/2000/svg">
<path fill-rule="evenodd" clip-rule="evenodd" d="M0 0H512V512H0V0Z" fill="white"/>
<path d="M298.017 116.5H213.482C210.657 116.5 208.394 118.843 208.332 121.756C206.625 203.624 165.09 281.327 93.6011 336.364C91.3315 338.111 90.8144 341.393 92.4737 343.758L141.934 414.283C143.616 416.683 146.895 417.225 149.203 415.462C193.903 381.273 229.857 340.03 255.75 294.317C281.642 340.03 317.598 381.273 362.299 415.462C364.604 417.225 367.883 416.683 369.568 414.283L419.028 343.758C420.685 341.393 420.168 338.111 417.901 336.364C346.409 281.327 304.875 203.624 303.169 121.756C303.108 118.843 300.842 116.5 298.017 116.5Z" fill="#FF875B"/>
</svg>
