<svg width="512" height="512" viewBox="0 0 512 512" fill="none" xmlns="http://www.w3.org/2000/svg">
<path fill-rule="evenodd" clip-rule="evenodd" d="M0 0H512V512H0V0Z" fill="black"/>
<path fill-rule="evenodd" clip-rule="evenodd" d="M278.369 112.234C290.714 112.234 302.293 113.891 313.014 116.963C302.518 92.4737 280.724 85.5 256.47 85.5C232.169 85.5 210.338 92.5011 199.865 117.107C210.507 113.927 222.037 112.234 234.339 112.234H278.369ZM231.516 136.82C172.898 136.82 139.5 182.984 139.5 239.93V298.428C139.5 304.123 144.252 308.628 150.114 308.628H362.386C368.247 308.628 373 304.123 373 298.428V239.93C373 182.984 334.163 136.82 275.545 136.82H231.516ZM256.167 240.436C276.683 240.436 293.315 223.786 293.315 203.248C293.315 182.71 276.683 166.06 256.167 166.06C235.651 166.06 219.019 182.71 219.019 203.248C219.019 223.786 235.651 240.436 256.167 240.436ZM139.5 343.011C139.5 337.318 144.252 332.7 150.114 332.7H362.386C368.247 332.7 373 337.318 373 343.011V404.877C373 416.267 363.497 425.5 351.773 425.5H160.727C149.004 425.5 139.5 416.267 139.5 404.877V343.011Z" fill="#E33E3F"/>
</svg>
