<svg width="512" height="512" viewBox="0 0 512 512" fill="none" xmlns="http://www.w3.org/2000/svg">
<path fill-rule="evenodd" clip-rule="evenodd" d="M0 0H512V512H0V0Z" fill="black"/>
<path d="M152.11 256.176L152.276 316.89L203.978 347.246V382.791L122.018 334.828V238.422L152.11 256.176ZM152.11 195.463V230.842L122 213.07V177.69L152.11 159.918L182.368 177.69L152.11 195.463ZM225.569 177.69L255.679 159.918L285.937 177.69L255.679 195.463L225.569 177.69Z" fill="#FAC315"/>
<path d="M174.478 304.517V268.92L204.502 286.718V322.149L174.478 304.517ZM226.032 360.27L256.056 378.069L286.227 360.27V395.702L256.056 413.5L226.032 395.702V360.27ZM329.287 177.716L359.311 159.918L389.482 177.716V213.148L359.311 230.946V195.515L329.287 177.716ZM359.311 317.119L359.476 256.317L389.5 238.519V335.065L307.775 383.099V347.502L359.311 317.119Z" fill="#FAC315"/>
<path d="M337.486 304.113L307.764 321.838V286.222L337.486 268.33V304.113Z" fill="#FAC315"/>
<path d="M337.321 207.491L337.486 243.091L285.931 273.494V334.448L255.991 352.082L226.052 334.448V273.494L174.497 243.091V207.491L204.564 189.691L255.808 220.242L307.363 189.691L337.449 207.491H337.321ZM174.478 146.703L255.826 98.5L337.321 146.703L307.382 164.503L255.826 133.952L204.418 164.503L174.478 146.703Z" fill="#FAC315"/>
</svg>
