<svg width="512" height="512" viewBox="0 0 512 512" fill="none" xmlns="http://www.w3.org/2000/svg">
<path fill-rule="evenodd" clip-rule="evenodd" d="M0 0H512V512H0V0Z" fill="white"/>
<path fill-rule="evenodd" clip-rule="evenodd" d="M389.5 277.302C389.5 350.113 256.005 413.5 256.005 413.5C256.005 413.5 122.508 350.113 122.508 277.302C122.508 258.395 122.516 241.704 122.523 225.745C122.538 194.018 122.551 165.188 122.5 127.598C207.268 88.7663 304.753 88.8066 389.5 127.683V277.302ZM245.583 150.51H228.358V167.612H211.133V310.158H228.358V327.265H245.583V310.158H262.809V327.265H280.034V308.514C301.92 303.894 314.485 289.747 314.485 268.741C314.485 254.065 305.012 240.795 288.805 236.573C303.118 232.351 311.328 220.087 311.328 206.415C311.328 186.963 299.58 173.322 280.034 169.041V150.51H262.809V167.612H245.583V150.51ZM260.809 189.929C275.333 189.929 283.753 196.564 283.753 207.823C283.753 219.082 275.754 225.716 262.282 225.716H238.076V189.929H260.809ZM262.493 247.43C278.701 247.43 286.91 254.065 286.91 267.334C286.91 279.397 277.017 286.836 261.02 286.836H238.076V247.43H262.493Z" fill="#0E52EE"/>
</svg>
