<svg width="512" height="512" viewBox="0 0 512 512" fill="none" xmlns="http://www.w3.org/2000/svg">
<path fill-rule="evenodd" clip-rule="evenodd" d="M0 0H512V512H0V0Z" fill="#00F0FF"/>
<path d="M233.889 210.142H314.734L397.44 292.389C402.831 297.73 402.853 306.44 397.505 311.813L291.427 418.5H208.147L233.327 394.006L325.776 302.074L234.496 210.132" fill="black"/>
<path d="M267.123 301.868H186.257L103.551 219.622C102.272 218.351 101.256 216.839 100.561 215.175C99.8654 213.51 99.5051 211.725 99.5001 209.921C99.495 208.117 99.8454 206.33 100.531 204.661C101.217 202.993 102.225 201.476 103.497 200.198L209.575 93.5H292.855L267.676 117.994L175.226 209.926L266.506 301.868" fill="black"/>
</svg>
