<svg width="512" height="512" viewBox="0 0 512 512" fill="none" xmlns="http://www.w3.org/2000/svg">
<path fill-rule="evenodd" clip-rule="evenodd" d="M0 0H512V512H0V0Z" fill="#2B6FFF"/>
<path d="M393.5 256C393.5 331.939 331.939 393.5 256 393.5C180.061 393.5 118.5 331.939 118.5 256C118.5 180.061 180.061 118.5 256 118.5C331.939 118.5 393.5 180.061 393.5 256Z" fill="white"/>
<path d="M212.987 229.91C212.987 221.343 219.933 214.397 228.5 214.397H282.09C290.657 214.397 297.603 221.343 297.603 229.91V283.5C297.603 292.068 290.657 299.013 282.09 299.013H228.5C219.933 299.013 212.987 292.068 212.987 283.5V229.91Z" fill="#2B6FFF"/>
</svg>
