<svg width="512" height="512" viewBox="0 0 512 512" fill="none" xmlns="http://www.w3.org/2000/svg">
<path fill-rule="evenodd" clip-rule="evenodd" d="M0 0H512V512H0V0Z" fill="white"/>
<path fill-rule="evenodd" clip-rule="evenodd" d="M0 0H512V512H0V0Z" fill="url(#paint0_linear_11512_1022)"/>
<path d="M179.277 139C164.778 139.012 150.607 143.325 138.556 151.393C126.505 159.462 117.114 170.923 111.571 184.331C106.028 197.738 104.581 212.49 107.412 226.72C110.244 240.95 117.227 254.021 127.48 264.28C137.733 274.54 150.795 281.528 165.015 284.362C179.236 287.196 193.976 285.747 207.374 280.2C220.773 274.654 232.227 265.257 240.29 253.197C248.353 241.138 252.664 226.958 252.675 212.449C252.665 192.972 244.928 174.296 231.166 160.524C217.403 146.752 198.74 139.011 179.277 139ZM179.277 255.746C170.718 255.746 162.351 253.206 155.235 248.447C148.118 243.688 142.571 236.924 139.296 229.012C136.021 221.099 135.164 212.391 136.835 203.991C138.505 195.59 142.627 187.874 148.68 181.818C154.733 175.763 162.444 171.639 170.839 169.968C179.234 168.298 187.935 169.157 195.842 172.435C203.749 175.714 210.507 181.266 215.263 188.387C220.017 195.509 222.553 203.883 222.552 212.449C222.511 223.92 217.939 234.91 209.832 243.021C201.725 251.133 190.742 255.706 179.277 255.746ZM395.476 201.796C395.5 212.299 392.847 222.634 387.767 231.827C379.933 225.445 371.014 220.526 361.439 217.304C363.992 212.534 365.335 207.208 365.353 201.796C365.353 193.131 361.913 184.821 355.789 178.693C349.667 172.566 341.362 169.123 332.703 169.123C324.044 169.123 315.738 172.566 309.615 178.693C303.492 184.821 300.053 193.131 300.053 201.796C300.012 207.215 301.359 212.554 303.967 217.304C294.391 220.526 285.472 225.445 277.637 231.827C272.403 222.268 269.749 211.51 269.936 200.613C270.126 189.715 273.149 179.055 278.71 169.683C284.271 160.313 292.177 152.554 301.65 147.173C311.121 141.792 321.831 138.975 332.723 139C349.36 139.018 365.312 145.64 377.076 157.412C388.842 169.185 395.459 185.147 395.476 201.796ZM332.723 227.205C318.218 227.193 304.036 231.484 291.969 239.54C279.901 247.593 270.491 259.047 264.93 272.451C259.369 285.857 257.904 300.612 260.722 314.849C263.54 329.088 270.513 342.17 280.763 352.442C291.01 362.714 304.072 369.715 318.296 372.557C332.519 375.4 347.267 373.959 360.671 368.416C374.077 362.873 385.538 353.476 393.607 341.414C401.675 329.353 405.988 315.167 406 300.652C405.977 281.2 398.253 262.551 384.52 248.785C370.785 235.019 352.162 227.259 332.723 227.205ZM332.723 343.836C324.176 343.825 315.823 341.278 308.722 336.518C301.622 331.756 296.092 324.995 292.831 317.09C289.57 309.183 288.724 300.487 290.404 292.101C292.082 283.714 296.208 276.014 302.259 269.974C308.311 263.933 316.017 259.826 324.402 258.168C332.788 256.511 341.475 257.379 349.368 260.663C357.26 263.946 364.002 269.498 368.741 276.616C373.479 283.734 376.003 292.1 375.991 300.652C375.96 312.115 371.388 323.099 363.277 331.195C355.167 339.29 344.178 343.836 332.723 343.836ZM242.031 311.184C242.031 327.842 235.417 343.821 223.644 355.6C211.873 367.382 195.905 374 179.258 374C162.609 374 146.642 367.382 134.87 355.6C123.097 343.821 116.484 327.842 116.484 311.184H146.607C146.607 319.849 150.047 328.158 156.17 334.286C162.293 340.414 170.597 343.856 179.258 343.856C187.917 343.856 196.221 340.414 202.344 334.286C208.468 328.158 211.908 319.849 211.908 311.184H242.031Z" fill="#252525"/>
<defs>
<linearGradient id="paint0_linear_11512_1022" x1="485.895" y1="26.1057" x2="33.181" y2="478.812" gradientUnits="userSpaceOnUse">
<stop stop-color="#F1D961"/>
<stop offset="1" stop-color="#CDA146"/>
</linearGradient>
</defs>
</svg>
