<svg width="512" height="512" viewBox="0 0 512 512" fill="none" xmlns="http://www.w3.org/2000/svg">
<path fill-rule="evenodd" clip-rule="evenodd" d="M0 0H512V512H0V0Z" fill="black"/>
<path fill-rule="evenodd" clip-rule="evenodd" d="M361.582 339.926L361.498 340.022C348.555 354.844 334.094 362.439 324.242 366.2C296.739 376.7 268.965 376.275 241.696 364.938C213.897 353.382 189.023 329.454 176.78 302.489C171.325 290.478 168.399 277.839 168.084 264.924C168.017 262.246 167.921 259.143 167.904 258.557L167.893 257.729L167.892 257.652L167.888 257.376C167.885 257.128 167.881 256.88 167.881 256.631L167.88 256.534C167.881 255.857 167.891 255.185 167.906 254.514C168.327 236.031 175.525 218.287 188.173 204.551C193.85 198.386 200.502 193.581 207.94 190.268C215.373 186.959 223.526 185.188 232.193 184.996C229.209 187.409 226.383 190.058 223.73 192.941C208.554 209.421 200.197 232.063 200.197 256.697C200.197 281.328 208.554 303.971 223.73 320.45C232.461 329.934 242.908 336.859 254.778 341.031C263.207 343.993 272.284 345.494 281.756 345.494C297.663 345.494 320.591 341.163 339.496 320.523C345.94 313.49 351.145 305.346 355.023 296.259H386.174C381.028 312.702 372.637 327.641 361.582 339.926ZM154.275 339.895C134.096 318.233 122.983 288.645 122.983 256.585C122.983 224.436 134.128 194.627 154.366 172.652C174.828 150.429 203.03 138.193 233.778 138.193C241.443 138.193 249.031 138.95 256.331 140.446C295.233 148.417 325.816 177.329 338.201 217.021H307.052C303.172 207.934 297.964 199.793 291.52 192.757C282.874 183.32 272.511 176.422 260.721 172.26C252.312 169.29 243.247 167.786 233.778 167.786C222.148 167.786 211.155 170.055 201.102 174.532C191.54 178.791 183.009 184.946 175.751 192.83C173.956 194.779 172.257 196.796 170.644 198.871C160.402 210.305 153.856 225.359 151.702 244.11C151.266 247.416 151.005 250.757 150.928 254.118C150.909 254.938 150.898 255.759 150.898 256.585L150.9 256.697C150.9 256.964 150.902 257.233 150.907 257.5V257.542C150.908 257.566 150.908 257.587 150.908 257.611L150.91 257.822L150.911 257.913L150.913 257.946V257.966L150.916 258.262C150.916 260.326 150.976 262.391 151.083 264.454C151.092 264.755 151.1 265.054 151.107 265.349C151.48 280.612 154.926 295.524 161.349 309.67C172.933 335.181 194.392 358.286 219.415 372.927C194.211 369.796 171.458 358.341 154.275 339.895ZM351.935 163.246C368.459 177.241 379.923 195.685 385.457 217.021H355.903C346.879 183.744 326.85 156.548 299.985 139.707C319.451 142.754 337.164 150.737 351.935 163.246ZM291.52 320.412C297.964 313.378 303.172 305.236 307.052 296.148H336.158C333.585 300.776 330.541 305.019 327.043 308.835C312.856 324.324 295.627 328.032 283.188 328.288C286.113 325.9 288.895 323.277 291.52 320.412ZM405.919 278.957H295.28L293.271 284.671C290.036 293.874 285.257 301.966 279.067 308.723C272.918 315.434 265.702 320.471 257.588 323.735C249.491 320.428 242.289 315.394 236.152 308.729C223.918 295.443 217.18 276.965 217.18 256.697C217.18 236.428 223.918 217.949 236.152 204.663C241.828 198.499 248.479 193.692 255.918 190.379C256.56 190.094 257.224 189.82 257.89 189.553C265.901 192.844 273.014 197.84 279.067 204.446C285.257 211.205 290.036 219.297 293.271 228.499L295.28 234.213H406C406 200.44 384.72 168.597 362.832 150.06C340.469 131.122 312.434 121.112 281.756 121.112C273.773 121.112 265.805 121.847 258.041 123.279C250.148 121.774 241.996 121 233.778 121C198.268 121 165.653 135.18 141.942 160.93C118.766 186.098 106 220.07 106 256.585C106 293.048 118.757 326.824 141.92 351.688C165.529 377.035 198.112 390.994 233.665 390.994C241.756 390.994 253.683 390.99 262.615 389.006C269.885 390.333 277.17 391 284.465 391C299.726 391 315.015 388.095 330.234 382.286C341.864 377.846 358.911 368.902 374.137 351.503C374.143 351.497 374.148 351.491 374.153 351.485C374.176 351.459 374.199 351.433 374.222 351.408C389.52 334.37 404.164 309.346 405.919 278.957Z" fill="url(#paint0_linear_11512_931)"/>
<defs>
<linearGradient id="paint0_linear_11512_931" x1="494.368" y1="277.025" x2="298.592" y2="6.70728" gradientUnits="userSpaceOnUse">
<stop stop-color="#B9775D"/>
<stop offset="0.218935" stop-color="#E89077"/>
<stop offset="0.739443" stop-color="#FDBDA4"/>
<stop offset="1" stop-color="#B57359"/>
</linearGradient>
</defs>
</svg>
