<svg width="512" height="512" viewBox="0 0 512 512" fill="none" xmlns="http://www.w3.org/2000/svg">
<path fill-rule="evenodd" clip-rule="evenodd" d="M0 0H512V512H0V0Z" fill="black"/>
<path d="M207.669 383.082V322.249H207.711C207.711 317.494 209.6 312.935 212.961 309.573C216.323 306.211 220.883 304.322 225.637 304.322H257.523C263.674 304.321 269.765 303.109 275.447 300.754C281.13 298.399 286.293 294.947 290.642 290.597C294.991 286.247 298.44 281.082 300.793 275.399C303.146 269.716 304.357 263.624 304.355 257.473V225.587C304.355 220.835 306.243 216.276 309.603 212.915C312.963 209.553 317.521 207.663 322.273 207.661H383.074C387.828 207.661 392.388 209.55 395.749 212.912C399.111 216.274 401 220.833 401 225.587V286.396C401 291.149 399.112 295.707 395.752 299.069C392.392 302.43 387.835 304.32 383.082 304.322H352.665C346.317 304.314 340.029 305.56 334.164 307.99C328.299 310.42 322.972 313.985 318.489 318.481C309.733 327.212 304.339 339.295 304.339 352.657V383.074C304.339 387.828 302.45 392.388 299.088 395.75C295.727 399.111 291.167 401 286.412 401H225.587C215.695 401 207.669 392.991 207.669 383.082Z" fill="white"/>
<path d="M111 225.563V286.404C110.999 288.758 111.462 291.097 112.362 293.272C113.262 295.447 114.581 297.423 116.245 299.088C117.909 300.753 119.885 302.073 122.059 302.974C124.234 303.875 126.564 304.339 128.918 304.339H189.743C194.497 304.339 199.057 302.45 202.419 299.088C205.781 295.727 207.669 291.167 207.669 286.413V255.996C207.658 249.648 208.903 243.361 211.333 237.496C213.763 231.632 217.33 226.307 221.828 221.828C226.31 217.334 231.635 213.769 237.499 211.339C243.363 208.91 249.649 207.662 255.996 207.669H286.412C291.167 207.669 295.727 205.781 299.088 202.419C302.45 199.057 304.339 194.497 304.339 189.743V128.926C304.339 124.172 302.45 119.612 299.088 116.251C295.727 112.889 291.167 111 286.412 111H225.612C215.695 111 207.694 119.034 207.694 128.918V160.804C207.692 173.225 202.756 185.137 193.972 193.92C185.188 202.702 173.275 207.636 160.853 207.636H128.926C124.172 207.636 119.612 209.525 116.251 212.887C112.889 216.249 111 220.808 111 225.563Z" fill="white"/>
</svg>
