<svg width="512" height="512" viewBox="0 0 512 512" fill="none" xmlns="http://www.w3.org/2000/svg">
<path fill-rule="evenodd" clip-rule="evenodd" d="M0 0H512V512H0V0Z" fill="white"/>
<path d="M419 147.901C418.996 133.45 413.255 119.592 403.035 109.374C392.815 99.155 378.954 93.4125 364.503 93.4085C338.068 93.1403 316.233 112.025 310.814 136.839H309.466C306.953 124.553 300.282 113.509 290.575 105.568C280.869 97.6266 268.722 93.2735 256.18 93.242C243.639 93.2105 231.469 97.5026 221.724 105.395C211.977 113.287 205.25 124.298 202.675 136.571H201.327C199.321 126.886 194.725 117.928 188.028 110.65C181.331 103.372 172.785 98.0468 163.3 95.2428C153.815 92.4388 143.747 92.2607 134.169 94.7274C124.591 97.1942 115.861 102.213 108.911 109.25C101.961 116.287 97.051 125.077 94.7039 134.684C92.3568 144.292 92.6608 154.356 95.5835 163.804C98.5062 173.252 103.938 181.73 111.3 188.334C118.662 194.939 127.679 199.422 137.388 201.306V202.386C124.933 204.815 113.71 211.499 105.641 221.292C97.5722 231.085 93.1599 243.379 93.1599 256.067C93.1599 268.756 97.5722 281.05 105.641 290.843C113.71 300.637 124.933 307.319 137.388 309.748V310.821C127.669 312.668 118.634 317.121 111.25 323.706C103.867 330.29 98.4121 338.756 95.4697 348.201C92.5272 357.645 92.2077 367.713 94.5453 377.325C96.883 386.937 101.79 395.734 108.741 402.772C115.692 409.811 124.426 414.829 134.009 417.287C143.592 419.746 153.663 419.554 163.146 416.733C172.628 413.91 181.164 408.563 187.843 401.266C194.521 393.966 199.089 384.99 201.059 375.296H202.407C207.533 400.11 229.653 418.964 255.826 418.964C268.415 419.021 280.632 414.694 290.379 406.727C300.126 398.757 306.793 387.646 309.237 375.296H310.585C315.712 400.11 337.831 418.964 364.004 418.964C377.569 418.931 390.635 413.85 400.658 404.712C410.682 395.574 416.942 383.031 418.224 369.529C419.503 356.025 415.708 342.529 407.581 331.671C399.453 320.813 387.572 313.368 374.255 310.79V309.718C386.712 307.289 397.935 300.606 406.003 290.812C414.072 281.019 418.483 268.725 418.483 256.037C418.483 243.348 414.072 231.054 406.003 221.261C397.935 211.468 386.712 204.785 374.255 202.356V201.276C386.802 199.064 398.166 192.5 406.351 182.737C414.536 172.975 419.014 160.64 419 147.901ZM343.73 331.054C343.734 332.719 343.407 334.37 342.771 335.908C342.136 337.449 341.202 338.848 340.023 340.025C338.844 341.203 337.447 342.137 335.906 342.772C334.366 343.41 332.717 343.735 331.05 343.733H181.329C179.663 343.735 178.013 343.41 176.473 342.772C174.933 342.137 173.534 341.203 172.356 340.025C171.178 338.848 170.244 337.449 169.608 335.908C168.972 334.37 168.646 332.719 168.649 331.054V181.349C168.646 179.683 168.972 178.033 169.608 176.494C170.244 174.954 171.178 173.555 172.356 172.377C173.534 171.199 174.933 170.265 176.473 169.629C178.013 168.993 179.663 168.667 181.329 168.67H331.05C332.717 168.667 334.366 168.993 335.906 169.629C337.447 170.265 338.844 171.199 340.023 172.377C341.202 173.555 342.136 174.954 342.771 176.494C343.407 178.033 343.734 179.683 343.73 181.349V331.054Z" fill="black"/>
</svg>
