<svg width="512" height="512" viewBox="0 0 512 512" fill="none" xmlns="http://www.w3.org/2000/svg">
<path fill-rule="evenodd" clip-rule="evenodd" d="M0 0H512V512H0V0Z" fill="white"/>
<path d="M183.5 256C183.5 216.204 216.072 183.5 256 183.5C295.928 183.5 328.5 216.072 328.5 256H183.5Z" fill="#292C33"/>
<path d="M255.999 111C175.941 111 111 175.941 111 256C111 336.059 175.941 401 255.999 401C336.059 401 401 336.059 401 256C401 175.941 336.19 111 255.999 111ZM255.999 364.849C196.186 364.849 147.151 315.946 147.151 256C147.151 196.054 196.186 147.283 255.999 147.283C315.814 147.283 364.848 196.186 364.848 256.131C364.848 316.078 315.945 364.98 255.999 364.98V364.849Z" fill="#292C33"/>
</svg>
