<svg width="512" height="512" viewBox="0 0 512 512" fill="none" xmlns="http://www.w3.org/2000/svg">
<path fill-rule="evenodd" clip-rule="evenodd" d="M0 0H512V512H0V0Z" fill="black"/>
<path d="M379.115 256.88L394.907 272.311C395.636 273.019 396 273.891 396 274.926C396 300.826 396 326.697 396 352.54C396.029 378.947 388.118 395.556 359.957 395.327C331.537 395.078 303.118 395.135 274.698 395.499C273.988 395.518 273.384 395.269 272.885 394.752L257.295 379.177C256.509 378.392 255.559 377.999 254.447 377.999C227.542 378.057 200.656 378.047 173.79 377.97C148.477 377.913 134.238 368.258 134.238 342.224C134.219 314.044 134.219 285.855 134.238 257.656C134.238 256.679 133.893 255.845 133.202 255.156L116.921 239.121C116.288 238.508 115.982 237.752 116.001 236.851C116.308 209.131 116.404 181.392 116.288 153.634C116.173 130.243 129.377 116.738 152.878 116.623C180.761 116.469 208.672 116.46 236.613 116.594C237.667 116.594 238.578 116.967 239.345 117.715L255.109 133.49C255.799 134.18 256.633 134.525 257.611 134.525C284.919 134.467 312.188 134.467 339.419 134.525C362.632 134.582 377.849 143.318 377.935 167.685C378.051 196.823 378.07 225.654 377.993 254.179C377.994 255.192 378.397 256.164 379.115 256.88ZM308.219 212.766C308.215 210.465 307.296 208.259 305.664 206.635C304.032 205.01 301.821 204.1 299.517 204.104L212.589 204.255C211.449 204.257 210.319 204.483 209.266 204.921C208.213 205.359 207.256 206 206.451 206.808C205.646 207.615 205.008 208.573 204.573 209.626C204.138 210.68 203.915 211.809 203.917 212.948L204.069 299.729C204.073 302.03 204.992 304.236 206.624 305.861C208.256 307.485 210.467 308.396 212.771 308.392L299.699 308.24C300.84 308.238 301.969 308.012 303.022 307.574C304.076 307.136 305.032 306.495 305.837 305.688C306.643 304.88 307.281 303.923 307.715 302.869C308.15 301.815 308.373 300.686 308.371 299.547L308.219 212.766Z" fill="#56E8D9"/>
</svg>
