<svg width="512" height="512" viewBox="0 0 512 512" fill="none" xmlns="http://www.w3.org/2000/svg">
<path fill-rule="evenodd" clip-rule="evenodd" d="M0 0H512V512H0V0Z" fill="black"/>
<path d="M137.005 122.501H276.624C277.029 122.491 277.429 122.586 277.787 122.776C278.145 122.967 278.447 123.246 278.666 123.587C278.885 123.928 279.013 124.32 279.037 124.725C279.062 125.13 278.982 125.534 278.805 125.899L183.949 327.483C183.751 327.892 183.441 328.235 183.054 328.472C182.667 328.708 182.221 328.829 181.768 328.818H113.382C113.044 328.821 112.71 328.751 112.402 328.614C112.094 328.477 111.818 328.275 111.594 328.022C111.371 327.769 111.204 327.47 111.104 327.147C111.005 326.824 110.976 326.484 111.02 326.148L134.643 124.564C134.717 123.99 134.998 123.463 135.433 123.083C135.868 122.703 136.428 122.496 137.005 122.501Z" fill="white"/>
<path d="M330.897 183.182H397.769C398.223 183.179 398.672 183.273 399.088 183.457C399.503 183.641 399.874 183.911 400.178 184.249C400.481 184.587 400.71 184.986 400.848 185.42C400.986 185.853 401.031 186.311 400.979 186.763L377.538 386.648C377.449 387.426 377.081 388.145 376.501 388.67C375.921 389.195 375.17 389.49 374.388 389.5H236.768C236.223 389.503 235.687 389.366 235.21 389.104C234.732 388.842 234.329 388.462 234.038 388.001C233.747 387.54 233.579 387.012 233.547 386.468C233.516 385.923 233.624 385.38 233.86 384.888L327.99 185.003C328.253 184.455 328.666 183.993 329.18 183.671C329.695 183.349 330.29 183.179 330.897 183.182Z" fill="#3D71FF"/>
</svg>
