<svg width="512" height="512" viewBox="0 0 512 512" fill="none" xmlns="http://www.w3.org/2000/svg">
<path fill-rule="evenodd" clip-rule="evenodd" d="M0 0H512V512H0V0Z" fill="white"/>
<path d="M348.801 118.5H223.202V288.167H392.869V162.399C392.869 138.34 373.056 118.5 349.029 118.5C348.915 118.5 348.801 118.5 348.801 118.5Z" fill="black"/>
<path d="M184.096 118.5H162.421C138.35 118.5 118.5 138.35 118.5 162.421V184.096H184.096V118.5Z" fill="black"/>
<path d="M118.5 223.202H184.096V288.798H118.5V223.202Z" fill="black"/>
<path d="M327.904 393.5H349.579C373.65 393.5 393.5 373.668 393.5 349.62V328.534H327.904V393.5Z" fill="black"/>
<path d="M223.202 327.904H288.798V393.5H223.202V327.904Z" fill="black"/>
<path d="M118.5 327.904V349.579C118.5 373.65 138.35 393.5 162.421 393.5H184.096V327.904H118.5Z" fill="black"/>
</svg>
