<svg width="512" height="512" viewBox="0 0 512 512" fill="none" xmlns="http://www.w3.org/2000/svg">
<path fill-rule="evenodd" clip-rule="evenodd" d="M0 0H512V512H0V0Z" fill="white"/>
<path fill-rule="evenodd" clip-rule="evenodd" d="M292.109 106.32C291.927 106.54 290.757 108.367 289.514 110.38C281.601 123.184 270.621 138.631 259.032 153.264C256.505 156.456 256.102 156.913 255.802 156.92C255.635 156.924 249.996 149.793 245.853 144.338C236.834 132.46 229.236 121.541 222.879 111.321C220.379 107.301 219.947 106.721 219.454 106.721C218.169 106.721 195.143 127.379 180.92 141.293C178.804 143.362 178.801 143.349 181.809 145.259C197.661 155.323 233.262 183.6 232.157 185.249C229.946 188.548 192.968 227.199 188.539 230.84L187.929 231.342L187.469 230.751C187.215 230.427 185.188 227.86 182.963 225.048C170.414 209.185 158.698 192.496 150.791 179.223C148.565 175.486 148.479 175.381 147.916 175.696C146.104 176.709 113.73 215.389 113.037 217.369C112.878 217.822 113.16 218.093 115.232 219.481C125.177 226.143 136.879 234.919 147.502 243.683C153.895 248.958 161.295 255.353 161.292 255.603C161.267 257.432 129.126 282.776 115.013 292.094C112.797 293.558 112.506 293.815 112.5 294.318C112.486 295.488 146.828 336.464 147.821 336.464C148.221 336.464 148.54 336.014 150.576 332.577C158.433 319.307 170.268 302.472 184.02 285.005C185.852 282.677 187.541 280.635 187.772 280.465C188.243 280.121 189.382 281.193 200.791 292.696C210.518 302.503 231.521 324.949 232.285 326.353C232.536 326.814 232.083 327.248 225.261 333.075C209.186 346.81 194.135 358.245 180.99 366.706C177.913 368.688 177.871 368.424 181.909 372.418C193.048 383.439 216.545 404.842 218.604 405.843C219.234 406.15 218.866 406.637 222.692 400.425C229.806 388.874 239.887 374.637 251.165 360.218C253.491 357.244 255.533 354.754 255.7 354.687C256.946 354.187 277.3 381.806 287.276 397.533C289.47 400.991 291.421 404.053 291.611 404.336C292.382 405.487 296.125 402.438 313.71 386.331C332.69 368.947 333.242 368.312 330.762 366.701C323.657 362.091 312.169 353.823 304.519 347.818C293.144 338.889 279.573 327.351 279.573 326.612C279.573 325.42 304.643 298.788 319.235 284.48C321.671 282.089 323.667 280.055 323.667 279.96C323.667 279.61 313.291 267.167 306.755 259.677L303.302 255.721L306.536 252.007C311.009 246.872 315.718 241.31 319.942 236.174C324.288 230.888 323.26 230.953 328.186 235.649C333.633 240.842 340.512 247.189 345.603 251.721C350.501 256.079 350.413 255.446 346.599 258.816C339.822 264.807 323.885 279.653 323.885 279.975C323.885 280.047 324.784 281.233 325.886 282.611C340.219 300.572 352.505 317.903 360.89 331.986C363.62 336.57 363.41 336.449 365.202 334.492C376.229 322.446 398.936 295.122 398.941 293.894C398.942 293.656 397.625 292.637 395.391 291.148C382.125 282.301 350.584 257.344 350.584 255.694C350.584 254.78 370.159 238.624 381.846 229.894C386.28 226.582 396.807 219.191 398.551 218.166C400.073 217.271 400.194 217.539 395.651 211.777C386.966 200.764 372.821 184.043 365.431 176.052C363.833 174.327 364.095 174.121 360.652 179.812C352.425 193.411 342.183 208.04 329.996 223.594C325.414 229.444 323.879 231.293 323.668 231.212C322.226 230.657 279.834 186.362 279.293 184.846C279.178 184.525 291.514 173.99 299.704 167.415C310.884 158.438 320.433 151.481 331.431 144.298C332.545 143.57 333.075 143.081 333.075 142.786C333.075 141.725 309.419 119.935 295.709 108.368C292.562 105.713 292.597 105.733 292.109 106.32ZM258.364 160.297C263.213 166.308 273.93 178.965 277.422 182.804C279.253 184.815 279.434 184.452 274.265 189.093C267.243 195.397 256.256 205.683 256.094 206.101C256.029 206.271 256.265 206.512 263.047 213.201C276.581 226.551 303.097 254.69 303.097 255.702C303.097 256.351 284.218 276.767 273.558 287.647C267.948 293.373 257.816 303.435 256.328 304.759L255.846 305.186L251.091 300.528C238.573 288.261 224.705 273.766 212.971 260.684L208.517 255.719L211.111 252.815C224.158 238.206 239.652 222 252.711 209.302C254.306 207.752 255.611 206.357 255.611 206.202C255.611 205.758 247.671 198.224 237.842 189.341C235.23 186.98 233.032 184.947 232.958 184.821C232.884 184.696 234.29 182.922 236.083 180.879C240.849 175.449 246.34 168.968 251.292 162.928C256.414 156.682 255.671 156.958 258.364 160.297ZM191.551 235.789C196.198 241.427 200.846 246.921 204.895 251.564C209.003 256.275 208.908 255.227 205.574 259.061C201.035 264.281 196.224 269.962 192.074 275.001C187.427 280.642 188.555 280.484 184.002 276.137C178.381 270.769 172.501 265.335 167.04 260.46C161.133 255.186 161.096 256.291 167.368 250.668C173.062 245.565 180.598 238.581 185.038 234.292C186.603 232.781 187.959 231.59 188.051 231.645C188.143 231.7 189.718 233.565 191.551 235.789ZM258.922 308.143C263.334 312.342 270.339 318.82 274.812 322.839C279.498 327.048 279.301 326.416 276.812 329.265C272.396 334.318 264.425 343.724 260.537 348.474C258.271 351.239 256.291 353.583 256.138 353.678C255.739 353.929 255.265 353.42 250.769 347.901C246.431 342.58 239.543 334.454 235.406 329.779C233.982 328.171 232.85 326.759 232.89 326.646C232.929 326.528 234.931 324.668 237.338 322.507C242.365 317.996 249.277 311.593 253.095 307.916C256.26 304.865 255.444 304.834 258.922 308.143Z" fill="black"/>
</svg>
