<svg width="512" height="512" viewBox="0 0 512 512" fill="none" xmlns="http://www.w3.org/2000/svg">
<path fill-rule="evenodd" clip-rule="evenodd" d="M0 0H512V512H0V0Z" fill="black"/>
<path d="M339.743 215.506C332.64 222.613 332.64 234.138 339.743 241.245C346.846 248.353 358.361 248.353 365.464 241.245C372.567 234.138 372.567 222.613 365.464 215.506C358.361 208.398 346.846 208.398 339.743 215.506Z" fill="white"/>
<path d="M278.655 283.073C273.328 288.403 273.328 297.046 278.655 302.377C283.982 307.708 292.619 307.708 297.946 302.377C303.273 297.046 303.273 288.403 297.946 283.073C292.619 277.742 283.982 277.742 278.655 283.073Z" fill="white"/>
<path d="M375.109 250.898C369.782 256.229 369.782 264.872 375.109 270.203C380.436 275.533 389.073 275.533 394.4 270.203C399.727 264.872 399.727 256.229 394.4 250.898C389.073 245.567 380.436 245.567 375.109 250.898Z" fill="white"/>
<path d="M342.958 283.073C337.631 288.403 337.631 297.046 342.958 302.377C348.285 307.708 356.922 307.708 362.249 302.377C367.576 297.046 367.576 288.403 362.249 283.073C356.922 277.742 348.285 277.742 342.958 283.073Z" fill="white"/>
<path d="M410.476 286.29C406.925 289.844 406.925 295.606 410.476 299.16C414.027 302.714 419.785 302.714 423.337 299.16C426.888 295.606 426.888 289.844 423.337 286.29C419.785 282.736 414.027 282.736 410.476 286.29Z" fill="white"/>
<path d="M378.325 318.465C374.773 322.019 374.773 327.781 378.325 331.335C381.876 334.888 387.634 334.888 391.185 331.335C394.736 327.781 394.736 322.019 391.185 318.465C387.634 314.911 381.876 314.911 378.325 318.465Z" fill="white"/>
<path d="M307.592 247.68C300.489 254.788 300.489 266.312 307.592 273.42C314.694 280.528 326.21 280.528 333.313 273.42C340.415 266.312 340.415 254.788 333.313 247.68C326.21 240.572 314.694 240.572 307.592 247.68Z" fill="white"/>
<path d="M307.592 183.331C300.489 190.439 300.489 201.963 307.592 209.071C314.694 216.179 326.21 216.179 333.313 209.071C340.415 201.963 340.415 190.439 333.313 183.331C326.21 176.223 314.694 176.223 307.592 183.331Z" fill="white"/>
<path d="M275.44 215.506C268.338 222.613 268.338 234.138 275.44 241.245C282.543 248.353 294.059 248.353 301.161 241.245C308.264 234.138 308.264 222.613 301.161 215.506C294.059 208.398 282.543 208.398 275.44 215.506Z" fill="white"/>
<path d="M210.839 215.506C203.736 222.613 203.736 234.138 210.839 241.245C217.941 248.353 229.457 248.353 236.56 241.245C243.662 234.138 243.662 222.613 236.56 215.506C229.457 208.398 217.941 208.398 210.839 215.506Z" fill="white"/>
<path d="M149.751 283.073C144.424 288.403 144.424 297.046 149.751 302.377C155.078 307.708 163.715 307.708 169.042 302.377C174.369 297.046 174.369 288.403 169.042 283.073C163.715 277.742 155.078 277.742 149.751 283.073Z" fill="white"/>
<path d="M246.205 250.898C240.878 256.229 240.878 264.872 246.205 270.203C251.532 275.533 260.169 275.533 265.496 270.203C270.823 264.872 270.823 256.229 265.496 250.898C260.169 245.567 251.532 245.567 246.205 250.898Z" fill="white"/>
<path d="M214.054 283.073C208.727 288.403 208.727 297.046 214.054 302.377C219.381 307.708 228.018 307.708 233.345 302.377C238.672 297.046 238.672 288.403 233.345 283.073C228.018 277.742 219.381 277.742 214.054 283.073Z" fill="white"/>
<path d="M88.6635 286.29C85.1122 289.844 85.1122 295.606 88.6635 299.16C92.2148 302.714 97.9727 302.714 101.524 299.16C105.075 295.606 105.075 289.844 101.524 286.29C97.9727 282.736 92.2148 282.736 88.6635 286.29Z" fill="white"/>
<path d="M120.815 318.465C117.264 322.019 117.264 327.781 120.815 331.335C124.366 334.888 130.124 334.888 133.675 331.335C137.227 327.781 137.227 322.019 133.675 318.465C130.124 314.911 124.366 314.911 120.815 318.465Z" fill="white"/>
<path d="M249.42 318.465C245.869 322.019 245.869 327.781 249.42 331.335C252.972 334.888 258.729 334.888 262.281 331.335C265.832 327.781 265.832 322.019 262.281 318.465C258.729 314.911 252.972 314.911 249.42 318.465Z" fill="white"/>
<path d="M117.6 250.898C112.273 256.229 112.273 264.872 117.6 270.203C122.927 275.533 131.564 275.533 136.891 270.203C142.218 264.872 142.218 256.229 136.891 250.898C131.564 245.567 122.927 245.567 117.6 250.898Z" fill="white"/>
<path d="M178.687 247.68C171.585 254.788 171.585 266.312 178.687 273.42C185.79 280.528 197.306 280.528 204.408 273.42C211.511 266.312 211.511 254.788 204.408 247.68C197.306 240.572 185.79 240.572 178.687 247.68Z" fill="white"/>
<path d="M178.687 183.331C171.585 190.439 171.585 201.963 178.687 209.071C185.79 216.179 197.306 216.179 204.408 209.071C211.511 201.963 211.511 190.439 204.408 183.331C197.306 176.223 185.79 176.223 178.687 183.331Z" fill="white"/>
<path d="M146.536 215.506C139.433 222.613 139.433 234.138 146.536 241.245C153.639 248.353 165.154 248.353 172.257 241.245C179.36 234.138 179.36 222.613 172.257 215.506C165.154 208.398 153.639 208.398 146.536 215.506Z" fill="white"/>
</svg>
