<svg width="512" height="512" viewBox="0 0 512 512" fill="none" xmlns="http://www.w3.org/2000/svg">
<path fill-rule="evenodd" clip-rule="evenodd" d="M0 0H512V512H0V0Z" fill="white"/>
<path d="M391.059 115.5L277.882 200.522L295.765 151.581L391.059 115.5Z" fill="#E2761B"/>
<path d="M120.824 115.5L234 200.522L216.353 151.581L120.824 115.5Z" fill="#E4761B"/>
<path d="M348.941 320.552L317.765 367.826L384.471 386.402L403.647 320.552H348.941Z" fill="#E4761B"/>
<path d="M108.471 320.552L127.529 386.402L194.235 367.826L163.059 320.552H108.471Z" fill="#E4761B"/>
<path d="M190.471 237.793L171.882 266.253L238.118 269.229L234 200.522L190.471 237.793Z" fill="#E4761B"/>
<path d="M321.412 237.793L277.882 200.522L274 269.229L340.118 266.253L321.412 237.793Z" fill="#E4761B"/>
<path d="M194.235 367.826L234 348.178L199.647 321.028L194.235 367.826Z" fill="#E4761B"/>
<path d="M277.882 348.178L317.765 367.826L312.235 321.028L277.882 348.178Z" fill="#E4761B"/>
<path d="M317.765 367.826L277.882 348.178L281.059 374.494L280.706 385.569L317.765 367.826Z" fill="#D7C1B3"/>
<path d="M194.235 367.826L231.294 385.569L231.059 374.494L234 348.178L194.235 367.826Z" fill="#D7C1B3"/>
<path d="M231.882 303.643L198.706 293.76L222.235 282.923L231.882 303.643Z" fill="#161616"/>
<path d="M280.118 303.643L289.882 282.923L313.412 293.76L280.118 303.643Z" fill="#161616"/>
<path d="M194.235 367.826L199.647 321.028L163.059 320.552L194.235 367.826Z" fill="#CD6116"/>
<path d="M312.235 321.028L317.765 367.826L348.941 320.552L312.235 321.028Z" fill="#CD6116"/>
<path d="M340.118 266.253L274 269.229L280.118 303.643L289.882 282.923L313.412 293.76L340.118 266.253Z" fill="#CD6116"/>
<path d="M198.706 293.76L222.235 282.923L231.882 303.643L238.118 269.229L171.882 266.253L198.706 293.76Z" fill="#CD6116"/>
<path d="M171.882 266.253L199.647 321.028L198.706 293.76L171.882 266.253Z" fill="#E4751F"/>
<path d="M313.412 293.76L312.235 321.028L340.118 266.253L313.412 293.76Z" fill="#E4751F"/>
<path d="M238.118 269.229L231.882 303.643L239.647 344.249L241.412 290.783L238.118 269.229Z" fill="#E4751F"/>
<path d="M274 269.229L270.824 290.663L272.235 344.249L280.118 303.643L274 269.229Z" fill="#E4751F"/>
<path d="M280.118 303.643L272.235 344.249L277.882 348.178L312.235 321.028L313.412 293.76L280.118 303.643Z" fill="#F6851B"/>
<path d="M198.706 293.76L199.647 321.028L234 348.178L239.647 344.249L231.882 303.643L198.706 293.76Z" fill="#F6851B"/>
<path d="M280.706 385.569L281.059 374.494L278.118 371.875H233.765L231.059 374.494L231.294 385.569L194.235 367.826L207.176 378.543L233.412 397H278.471L304.824 378.543L317.765 367.826L280.706 385.569Z" fill="#C0AD9E"/>
<path d="M277.882 348.178L272.235 344.249H239.647L234 348.178L231.059 374.494L233.765 371.875H278.118L281.059 374.494L277.882 348.178Z" fill="#161616"/>
<path d="M396 209.214L406 160.63L391.059 115.5L277.882 200.522L321.412 237.793L382.941 256.012L396.588 239.936L390.706 235.65L400.118 226.957L392.824 221.241L402.235 213.977L396 209.214Z" fill="#763D16"/>
<path d="M106 160.63L116 209.214L109.647 213.977L119.059 221.241L111.882 226.957L121.294 235.65L115.412 239.936L128.941 256.012L190.471 237.793L234 200.522L120.824 115.5L106 160.63Z" fill="#763D16"/>
<path d="M382.941 256.012L321.412 237.793L340.118 266.253L312.235 321.028L348.941 320.552H403.647L382.941 256.012Z" fill="#F6851B"/>
<path d="M190.471 237.793L128.941 256.012L108.471 320.552H163.059L199.647 321.028L171.882 266.253L190.471 237.793Z" fill="#F6851B"/>
<path d="M274 269.229L277.882 200.522L295.765 151.581H216.353L234 200.522L238.118 269.229L241.412 290.783L239.647 344.249H272.235L270.824 290.663L274 269.229Z" fill="#F6851B"/>
</svg>
