<svg width="512" height="512" viewBox="0 0 512 512" fill="none" xmlns="http://www.w3.org/2000/svg">
<path fill-rule="evenodd" clip-rule="evenodd" d="M0 0H512V512H0V0Z" fill="#48B5A7"/>
<path fill-rule="evenodd" clip-rule="evenodd" d="M224.94 162.078C232.381 166.687 237.378 173.992 283.054 247.038C330.836 323.451 333.028 327.332 333.028 335.543C333.028 342.99 332.232 344.918 327.041 350.049C321.823 355.208 319.921 355.967 312.21 355.967C305.305 355.967 302.199 354.996 298.045 351.541C295.119 349.108 281.461 328.939 267.695 306.723C226.648 240.48 205.934 207.753 205.428 208.339C200.79 213.714 188.646 236.832 188.646 240.283C188.646 243.152 197.419 259.453 211.485 282.715C224.045 303.49 235.558 323.409 237.066 326.979C242.944 340.885 232.767 355.967 217.501 355.967C213.183 355.967 207.684 354.693 205.282 353.137C202.878 351.579 192.162 335.915 181.469 318.326C170.776 300.737 161.368 286.346 160.562 286.346C159.755 286.346 150.78 300.249 140.619 317.24C130.458 334.232 120.499 349.599 118.49 351.386C116.481 353.175 111.369 355.024 107.133 355.497C93.3709 357.03 83 348.18 83 334.9C83 328.433 83.074 328.298 135.376 239.352C157.047 202.496 177.363 169.752 180.522 166.586C192.31 154.77 210.209 152.954 224.94 162.078ZM322.467 162.094C327.635 167.333 423.467 319.761 426.422 327.44C430.685 338.525 426.165 348.838 414.62 354.362C408.374 357.351 406.14 357.619 400.335 356.073C396.549 355.065 392.177 352.848 390.617 351.144C389.057 349.44 364.773 311.255 336.65 266.287C281.753 178.503 281.737 178.47 288.152 166.208C294.201 154.639 312.903 152.399 322.467 162.094Z" fill="white"/>
</svg>
