<svg width="512" height="512" viewBox="0 0 512 512" fill="none" xmlns="http://www.w3.org/2000/svg">
<path fill-rule="evenodd" clip-rule="evenodd" d="M0 0H512V512H0V0Z" fill="#6979F8"/>
<path d="M381.776 93.5C357.966 126.739 328.232 149.764 293.025 165.114C280.838 161.728 268.256 160.035 255.956 160.148C243.6 160.035 231.074 161.784 218.887 165.114C183.737 149.651 153.947 126.739 130.137 93.5C129.873 94.1636 129.582 94.887 129.268 95.6693C129.267 95.6707 129.266 95.6722 129.266 95.6736L129.265 95.6763C121.012 116.189 96.4932 177.131 128.501 261.107C128.501 261.107 117.893 306.593 137.415 345.644C137.415 345.644 165.682 332.834 188.138 350.836C201.101 361.34 204.616 371.637 207.949 381.404C210.652 389.322 213.235 396.891 220.637 403.94C234.911 418.5 256.069 418.5 256.069 418.5C256.069 418.5 277.227 418.5 291.502 403.997C298.915 396.961 301.506 389.393 304.221 381.464C307.56 371.711 311.085 361.414 324 350.893C346.4 332.891 374.723 345.701 374.723 345.701C394.188 306.649 383.638 261.164 383.638 261.164C415.612 176.645 390.72 115.481 382.515 95.3226C382.512 95.3143 382.509 95.306 382.505 95.2977C382.5 95.284 382.494 95.2702 382.488 95.2565C382.234 94.631 381.995 94.0453 381.776 93.5ZM146.217 249.087C128.162 212.01 123.197 161.107 134.594 120.87C149.659 159.019 170.139 176.175 194.513 194.234C184.188 215.678 164.779 235.882 146.217 249.087ZM198.181 314.38C183.906 308.06 180.916 295.701 180.916 295.701C200.325 283.511 228.874 292.823 229.777 321.717C221.17 316.506 215.847 316.511 210.691 316.516C206.857 316.519 203.114 316.523 198.181 314.38ZM255.956 416.976C245.8 416.976 237.506 409.64 237.506 400.667C237.506 391.694 245.8 384.358 255.956 384.358C266.112 384.358 274.406 391.694 274.406 400.667C274.406 409.696 266.168 416.976 255.956 416.976ZM313.844 314.38C308.902 316.551 305.164 316.536 301.329 316.522C296.19 316.502 290.875 316.481 282.249 321.717C283.208 292.823 311.644 283.455 331.109 295.701C331.109 295.699 331.106 295.712 331.098 295.739C330.887 296.495 327.574 308.332 313.844 314.38ZM365.752 249.087C347.246 235.938 327.781 215.735 317.399 194.234C341.773 176.175 362.31 158.963 377.318 120.87C388.885 161.051 383.92 212.01 365.752 249.087Z" fill="white"/>
<path fill-rule="evenodd" clip-rule="evenodd" d="M293.025 165.114C328.232 149.764 357.966 126.739 381.776 93.5C381.995 94.0453 382.234 94.631 382.488 95.2565L382.505 95.2977L382.515 95.3226C390.72 115.481 415.612 176.645 383.638 261.164C383.638 261.164 394.188 306.649 374.723 345.701C374.723 345.701 346.4 332.891 324 350.893C311.085 361.414 307.56 371.711 304.221 381.464C301.506 389.393 298.915 396.961 291.502 403.997C277.227 418.5 256.069 418.5 256.069 418.5C256.069 418.5 234.911 418.5 220.637 403.94C213.235 396.891 210.652 389.322 207.949 381.404C204.616 371.637 201.101 361.34 188.138 350.836C165.682 332.834 137.415 345.644 137.415 345.644C117.893 306.593 128.501 261.107 128.501 261.107C96.4932 177.131 121.012 116.189 129.265 95.6763L129.266 95.6736L129.268 95.6693C129.582 94.887 129.873 94.1636 130.137 93.5C153.947 126.739 183.737 149.651 218.887 165.114C231.074 161.784 243.6 160.035 255.956 160.148C268.256 160.035 280.838 161.728 293.025 165.114ZM134.594 120.87C123.197 161.107 128.162 212.01 146.217 249.087C164.779 235.882 184.188 215.678 194.513 194.234C170.139 176.175 149.659 159.019 134.594 120.87ZM365.752 249.087C347.246 235.938 327.781 215.735 317.399 194.234C341.773 176.175 362.31 158.963 377.318 120.87C388.885 161.051 383.92 212.01 365.752 249.087ZM301.329 316.522C305.164 316.536 308.902 316.551 313.844 314.38C327.574 308.332 330.887 296.495 331.098 295.739C331.106 295.712 331.109 295.699 331.109 295.701C311.644 283.455 283.208 292.823 282.249 321.717C290.875 316.481 296.19 316.502 301.329 316.522ZM198.181 314.38C183.906 308.06 180.916 295.701 180.916 295.701C200.325 283.511 228.874 292.823 229.777 321.717C221.17 316.506 215.847 316.511 210.691 316.516C206.857 316.519 203.114 316.523 198.181 314.38ZM237.506 400.667C237.506 409.64 245.8 416.976 255.956 416.976C266.168 416.976 274.406 409.696 274.406 400.667C274.406 391.694 266.112 384.358 255.956 384.358C245.8 384.358 237.506 391.694 237.506 400.667Z" fill="white"/>
</svg>
