<svg width="512" height="512" viewBox="0 0 512 512" fill="none" xmlns="http://www.w3.org/2000/svg">
<path fill-rule="evenodd" clip-rule="evenodd" d="M0 0H512V512H0V0Z" fill="black"/>
<path d="M124.674 118.539C121.275 118.539 118.5 121.334 118.5 124.758V204.656C118.5 208.12 121.275 210.915 124.674 210.915H204.005C207.405 210.915 210.18 208.12 210.18 204.656V124.758C210.18 121.334 207.405 118.539 204.005 118.539H124.674Z" fill="white"/>
<path d="M204.005 393.5C207.405 393.5 210.18 390.706 210.18 387.281V307.383C210.18 303.919 207.405 301.125 204.005 301.125H124.674C121.275 301.125 118.5 303.919 118.5 307.383V387.281C118.5 390.706 121.275 393.5 124.674 393.5H204.005Z" fill="white"/>
<path d="M216.276 302.188H295.607C299.046 302.188 301.82 299.354 301.82 295.93V216.031C301.82 212.568 299.007 209.773 295.607 209.773H216.276C212.837 209.773 210.062 212.607 210.062 216.031V295.93C210.062 299.393 212.876 302.188 216.276 302.188Z" fill="white"/>
<path d="M387.286 393.5C390.725 393.5 393.5 390.706 393.5 387.281V307.383C393.5 303.919 390.686 301.125 387.286 301.125H307.956C304.556 301.125 301.781 303.919 301.781 307.383V387.281C301.781 390.706 304.556 393.5 307.956 393.5H387.286Z" fill="white"/>
<path d="M387.286 210.875C390.725 210.875 393.5 208.081 393.5 204.617V124.719C393.5 121.294 390.686 118.5 387.286 118.5H307.956C304.556 118.5 301.781 121.294 301.781 124.719V204.617C301.781 208.081 304.556 210.875 307.956 210.875H387.286Z" fill="white"/>
</svg>
