<svg width="512" height="512" viewBox="0 0 512 512" fill="none" xmlns="http://www.w3.org/2000/svg">
<path fill-rule="evenodd" clip-rule="evenodd" d="M0 0H512V512H0V0ZM344 333.516C344 381.28 305.273 420 257.5 420C209.728 420 171 381.28 171 333.516C171 285.753 209.728 247.034 257.5 247.034C305.273 247.034 344 285.753 344 333.516ZM257.5 380.738C283.584 380.738 304.73 359.596 304.73 333.516C304.73 307.437 283.584 286.295 257.5 286.295C231.415 286.295 210.27 307.437 210.27 333.516C210.27 359.596 231.415 380.738 257.5 380.738ZM206.257 106H282.105V230.964H235.078V146.227H192.951L206.257 106Z" fill="#16D629"/>
<path d="M282.105 106H206.257L192.951 146.227H235.078V230.964H282.105V106Z" fill="white"/>
<path fill-rule="evenodd" clip-rule="evenodd" d="M344 333.516C344 381.28 305.273 420 257.5 420C209.728 420 171 381.28 171 333.516C171 285.753 209.728 247.034 257.5 247.034C305.273 247.034 344 285.753 344 333.516ZM257.5 380.738C283.584 380.738 304.73 359.596 304.73 333.516C304.73 307.437 283.584 286.295 257.5 286.295C231.415 286.295 210.27 307.437 210.27 333.516C210.27 359.596 231.415 380.738 257.5 380.738Z" fill="white"/>
</svg>
