<svg width="512" height="512" viewBox="0 0 512 512" fill="none" xmlns="http://www.w3.org/2000/svg">
<path fill-rule="evenodd" clip-rule="evenodd" d="M0 0H512V512H0V0Z" fill="#AB9FF2"/>
<path fill-rule="evenodd" clip-rule="evenodd" d="M223.199 326.962C204.599 355.449 173.431 391.5 131.958 391.5C112.352 391.5 93.5006 383.435 93.5 348.394C93.4984 259.151 215.404 121.002 328.514 121C392.858 120.999 418.5 165.618 418.5 216.289C418.5 281.329 376.272 355.699 334.298 355.699C320.976 355.699 314.441 348.388 314.441 336.794C314.441 333.769 314.942 330.49 315.949 326.962C301.62 351.413 273.972 374.106 248.083 374.106C229.231 374.106 219.68 362.256 219.68 345.616C219.68 339.566 220.937 333.265 223.199 326.962ZM307.154 189.617C296.915 189.636 289.935 198.33 289.957 210.732C289.979 223.135 296.991 232.053 307.229 232.035C317.22 232.017 324.197 223.075 324.175 210.672C324.153 198.269 317.145 189.6 307.154 189.617ZM361.464 189.558C351.225 189.576 344.245 198.271 344.267 210.673C344.289 223.076 351.297 231.994 361.539 231.976C371.53 231.958 378.507 223.016 378.485 210.613C378.463 198.21 371.455 189.541 361.464 189.558Z" fill="white"/>
</svg>
