<svg width="512" height="512" viewBox="0 0 512 512" fill="none" xmlns="http://www.w3.org/2000/svg">
<path fill-rule="evenodd" clip-rule="evenodd" d="M0 0H512V512H0V0Z" fill="white"/>
<path fill-rule="evenodd" clip-rule="evenodd" d="M328.48 195.337C328.483 195.338 328.487 195.34 328.489 195.341C330.805 194.426 330.43 190.996 329.794 188.303C328.332 182.113 303.114 157.145 279.431 145.961C247.161 130.722 223.398 131.507 219.887 138.531C226.461 152.039 256.935 164.721 288.762 177.966C302.34 183.617 316.165 189.37 328.484 195.334L328.485 195.334C328.485 195.334 328.482 195.337 328.48 195.337Z" fill="url(#paint0_linear_11512_937)"/>
<path d="M267.622 269.638C255.777 248.578 240.909 237.369 206.359 237.369C187.356 237.369 145.761 251.14 137.514 279.927C134.236 291.368 124.006 299.126 124.006 299.126C128.978 328.333 147.412 340.066 183.294 343.658C187.513 344.081 191.531 344.424 195.38 344.705C225.07 346.868 244.713 345.286 269.278 347.343C269.968 347.401 270.662 347.461 271.36 347.525C295.392 349.717 316.851 361.996 324.811 357.753C331.975 353.934 327.968 340.138 318.381 331.285C313.28 326.575 307.374 322.454 300.091 319.037C292.182 315.326 282.649 312.444 270.756 310.538C274.462 296.555 273.854 280.718 267.622 269.638Z" fill="url(#paint1_linear_11512_937)"/>
<path d="M154.511 387.046C154.511 398.517 185.988 395.409 197.806 391.133C222.322 382.264 247.625 365.26 269.278 347.343C244.713 345.286 225.07 346.868 195.38 344.705C170.99 371.707 154.511 378.927 154.511 387.046Z" fill="url(#paint2_linear_11512_937)"/>
<path d="M414.365 276.281C426.933 248.129 364.799 169.48 305.439 136.713C268.023 111.328 229.035 114.816 221.139 125.961C218.859 129.18 218.172 132.335 218.813 135.441C218.846 135.599 218.882 135.758 218.922 135.916C219.059 136.463 219.237 137.009 219.454 137.553C219.584 137.88 219.729 138.206 219.887 138.531C223.398 131.507 247.161 130.722 279.431 145.961C303.114 157.145 328.332 182.113 329.794 188.303C330.43 190.996 330.805 194.426 328.489 195.341C328.487 195.34 328.483 195.338 328.48 195.337C328.482 195.337 328.485 195.334 328.485 195.334L328.484 195.334C317.743 200.012 307.622 208.404 301.671 219.138C283.044 198.749 242.159 181.19 194.186 195.333C161.857 204.865 134.99 227.334 124.606 261.273C122.083 260.148 119.289 259.524 116.35 259.524C105.111 259.524 96 268.659 96 279.927C96 291.196 105.111 300.331 116.35 300.331C117.943 300.331 122.124 299.512 124.006 299.126C124.006 299.126 134.236 291.368 137.514 279.927C145.761 251.14 187.356 237.369 206.359 237.369C240.909 237.369 255.777 248.578 267.622 269.638C273.854 280.718 274.462 296.555 270.756 310.538C282.649 312.444 292.182 315.326 300.091 319.037C312.89 305.978 322.076 294.68 325.579 288.511C369.369 293.989 406.17 294.636 414.365 276.281Z" fill="url(#paint3_linear_11512_937)"/>
<defs>
<linearGradient id="paint0_linear_11512_937" x1="367.944" y1="137.97" x2="182.69" y2="128.322" gradientUnits="userSpaceOnUse">
<stop stop-color="#7689F9"/>
<stop offset="1" stop-color="#A9B5FF"/>
</linearGradient>
<linearGradient id="paint1_linear_11512_937" x1="203.629" y1="249.695" x2="307.616" y2="381.474" gradientUnits="userSpaceOnUse">
<stop stop-color="#8898FF"/>
<stop offset="0.983895" stop-color="#6277F1"/>
</linearGradient>
<linearGradient id="paint2_linear_11512_937" x1="151.074" y1="246.963" x2="511.818" y2="335.444" gradientUnits="userSpaceOnUse">
<stop stop-color="#8697FF"/>
<stop offset="1" stop-color="#ABB7FF"/>
</linearGradient>
<linearGradient id="paint3_linear_11512_937" x1="151.074" y1="246.963" x2="511.818" y2="335.444" gradientUnits="userSpaceOnUse">
<stop stop-color="#8697FF"/>
<stop offset="1" stop-color="#ABB7FF"/>
</linearGradient>
</defs>
</svg>
