<svg width="512" height="512" viewBox="0 0 512 512" fill="none" xmlns="http://www.w3.org/2000/svg">
<path fill-rule="evenodd" clip-rule="evenodd" d="M0 0H512V512H0V0Z" fill="white"/>
<path d="M406 382.976C406 230.006 282.136 106 129.341 106C116.132 106 106 117.142 106 130.366V165.096C111.776 164.647 117.614 164.419 123.506 164.419C246.917 164.419 346.961 264.578 346.961 388.131C346.961 394.145 346.724 400.105 346.259 406H382.034C395.044 406 406 396.001 406 382.976Z" fill="url(#paint0_radial_11512_914)"/>
<path d="M346.961 388.131C346.961 264.578 246.917 164.419 123.506 164.419C117.614 164.419 111.776 164.647 106 165.096V225.139C111.752 224.527 117.592 224.213 123.506 224.213C213.931 224.213 287.236 297.601 287.236 388.131C287.236 394.169 286.91 400.131 286.274 406H346.259C346.724 400.105 346.961 394.145 346.961 388.131Z" fill="url(#paint1_radial_11512_914)"/>
<path d="M128.654 285.381C182.114 285.381 225.451 328.768 225.451 382.289C225.451 394.448 234.311 406 246.456 406H286.274C286.91 400.131 287.236 394.169 287.236 388.131C287.236 297.601 213.931 224.213 123.506 224.213C117.592 224.213 111.752 224.527 106 225.139V265.16C106 276.831 116.997 285.381 128.654 285.381Z" fill="url(#paint2_radial_11512_914)"/>
<defs>
<radialGradient id="paint0_radial_11512_914" cx="0" cy="0" r="1" gradientUnits="userSpaceOnUse" gradientTransform="translate(106 406) rotate(-46.4626) scale(314.62 283.648)">
<stop stop-color="#D75036"/>
<stop offset="0.822917" stop-color="#D75036"/>
<stop offset="1" stop-color="#7E50A8"/>
</radialGradient>
<radialGradient id="paint1_radial_11512_914" cx="0" cy="0" r="1" gradientUnits="userSpaceOnUse" gradientTransform="translate(106 406) rotate(-45.4571) scale(251.622)">
<stop stop-color="#FCE845"/>
<stop offset="0.755208" stop-color="#FCE845"/>
<stop offset="0.916667" stop-color="#F4AC35"/>
<stop offset="1" stop-color="#F4AC35"/>
</radialGradient>
<radialGradient id="paint2_radial_11512_914" cx="0" cy="0" r="1" gradientUnits="userSpaceOnUse" gradientTransform="translate(106 406) rotate(-45.507) scale(189.053)">
<stop stop-color="#4FB4CC"/>
<stop offset="0.697917" stop-color="#4FB4CC"/>
<stop offset="0.744792" stop-color="#4FB4CC"/>
<stop offset="0.911458" stop-color="#5DCF69"/>
<stop offset="1" stop-color="#5DCF69"/>
</radialGradient>
</defs>
</svg>
