<svg width="512" height="512" viewBox="0 0 512 512" fill="none" xmlns="http://www.w3.org/2000/svg">
<path fill-rule="evenodd" clip-rule="evenodd" d="M0 0H512V512H0V0Z" fill="#532DDB"/>
<path d="M238.559 119C230.189 119 222.163 122.325 216.244 128.243L123.281 221.208C119.76 224.729 118 229.344 118 233.959C118 238.574 119.761 243.189 123.282 246.71L184.203 307.632V199.778C184.203 191.729 190.677 185.204 198.726 185.204C232.731 185.204 315.504 185.204 326.794 185.204L392.997 119.001L238.559 119Z" fill="white"/>
<path d="M184.206 327.796H312.223C320.272 327.796 326.797 321.271 326.797 313.222V205.369L387.718 266.29C391.24 269.811 393 274.426 393 279.042C393 283.656 391.24 288.271 387.718 291.793L294.756 384.757C288.837 390.675 280.811 394 272.441 394L118.003 393.999L184.206 327.796Z" fill="white"/>
</svg>
