<svg width="512" height="512" viewBox="0 0 512 512" fill="none" xmlns="http://www.w3.org/2000/svg">
<path fill-rule="evenodd" clip-rule="evenodd" d="M0 0H512V512H0V0Z" fill="#13FF7F"/>
<path d="M176.634 384.42C176.751 391.933 183.572 400.989 191.351 400.989C234.775 400.989 278.197 400.993 321.614 401C362.126 401 327.648 355.145 352.187 344.439C368.213 337.448 400.989 353.943 400.989 323.209C400.989 307.325 400.993 291.44 401 275.556C401 260.647 393.562 256.028 379.451 256.007L357.242 255.986C352.177 255.979 348.431 256.475 346.004 257.476C335.735 261.711 335.565 270.395 335.554 281.568L335.533 316.622C335.526 320.347 335.065 323.255 334.15 325.348C330.106 334.596 322.87 335.564 312.771 335.554C273.56 335.525 234.35 335.532 195.139 335.575C186.605 335.582 180.979 338.767 178.262 345.131C177.034 348.004 176.428 353.567 176.442 361.817C176.456 369.359 176.52 376.893 176.634 384.42Z" fill="black"/>
<path d="M289.205 240.796C289.197 236.052 287.305 231.505 283.944 228.156C280.583 224.807 276.03 222.93 271.286 222.939L241.362 222.991C239.013 222.995 236.687 223.462 234.519 224.365C232.35 225.267 230.38 226.588 228.722 228.252C227.064 229.916 225.75 231.891 224.854 234.063C223.959 236.235 223.5 238.562 223.505 240.911L223.557 271.069C223.566 275.814 225.458 280.36 228.819 283.709C232.179 287.058 236.733 288.935 241.477 288.927L271.401 288.874C273.75 288.87 276.075 288.404 278.244 287.501C280.413 286.598 282.383 285.277 284.041 283.613C285.699 281.949 287.013 279.975 287.908 277.803C288.804 275.631 289.262 273.304 289.258 270.955L289.205 240.796Z" fill="black"/>
<path d="M111.986 244.897C114.391 251.665 121.159 255.975 128.3 255.986C137.054 256 145.809 256.004 154.563 255.996C159.841 255.982 163.679 255.489 166.077 254.517C175.325 250.771 176.463 243.237 176.463 233.362C176.47 221.578 176.453 209.776 176.41 197.957C176.367 184.623 181.795 176.216 196.682 176.205C237.269 176.184 277.852 176.173 318.432 176.173C321.412 176.173 323.82 175.74 325.658 174.875C334.267 170.81 335.597 164.116 335.544 154.56C335.515 147.104 335.526 139.647 335.576 132.191C335.661 119.325 330.553 111.004 316.112 111.004C274.951 110.996 233.786 111 192.617 111.014C186.672 111.014 182.547 111.429 180.241 112.259C161.246 119.081 173.558 145.014 167.641 159.168C158.256 181.579 122.106 156.912 112.571 179.408C111.536 181.856 111.014 185.807 111.007 191.263C110.993 206.169 111 221.074 111.028 235.979C111.043 240.165 111.362 243.138 111.986 244.897Z" fill="black"/>
</svg>
