<svg width="512" height="512" viewBox="0 0 512 512" fill="none" xmlns="http://www.w3.org/2000/svg">
<path fill-rule="evenodd" clip-rule="evenodd" d="M0 0H512V512H0V0Z" fill="#67AEFF"/>
<path d="M136.316 343.571C147.306 384.658 188.353 421.852 273.279 399.056C354.312 377.304 405.096 310.525 391.928 261.292C387.381 244.29 373.683 232.782 352.566 234.654L163.737 250.415C151.846 251.329 146.393 249.377 143.247 241.87C140.196 234.716 141.935 227.036 156.298 219.764L300 145.886C311.014 140.272 318.35 137.923 325.054 140.3C329.255 141.829 332.022 147.92 329.481 155.435L320.165 182.991C308.729 216.81 333.207 224.665 347.007 220.961C367.885 215.357 372.796 195.437 366.07 170.289C349.018 106.534 281.497 96.5658 220.281 112.998C158.002 129.715 104.016 180.271 120.5 241.901C124.384 256.423 137.728 268.026 153.183 267.673L176.778 267.616C181.631 267.504 179.884 267.904 189.245 267.127C198.606 266.349 223.607 263.267 223.607 263.267L346.286 249.36L349.446 248.9C356.622 247.674 362.043 249.541 366.628 257.453C373.489 269.291 363.022 278.219 350.492 288.906C350.157 289.193 349.82 289.479 349.483 289.769L241.643 382.872C223.159 398.843 210.175 392.838 205.628 375.836L189.522 315.623C185.544 300.746 171.044 289.074 154.058 293.634C132.827 299.333 131.105 324.091 136.316 343.571Z" fill="black"/>
</svg>
