<svg width="512" height="512" viewBox="0 0 512 512" fill="none" xmlns="http://www.w3.org/2000/svg">
<path fill-rule="evenodd" clip-rule="evenodd" d="M0 0H512V512H0V0Z" fill="#FFEF46"/>
<path d="M256.802 267.916L277.481 247.94L316.035 260.556C341.271 268.968 353.889 284.388 353.889 306.117C353.889 322.589 347.58 333.454 334.963 347.473L331.107 351.678L332.509 341.865C338.116 306.117 327.602 290.697 292.903 279.481L256.802 267.916ZM204.928 145.603L310.077 180.65L287.294 202.379L232.617 184.154C213.691 177.846 207.382 167.682 204.928 146.304V145.603ZM198.618 323.64L222.453 300.859L267.317 315.58C290.799 323.29 298.86 333.454 296.408 359.038L198.618 323.64ZM168.476 222.004C168.476 215.347 171.981 209.038 177.94 203.78C184.249 212.893 195.114 220.953 212.288 226.561L249.442 238.827L228.762 258.804L192.31 246.887C175.486 241.281 168.476 232.869 168.476 222.004ZM278.533 406C355.641 354.832 397 320.136 397 277.379C397 248.991 380.176 233.219 343.024 220.953L314.984 211.49L391.743 137.893L376.32 121.421L353.539 141.397L245.937 106C212.638 116.865 170.579 148.757 170.579 180.649C170.579 184.154 170.93 187.659 171.981 191.514C144.292 207.285 133.076 222.004 133.076 240.228C133.076 257.401 142.189 274.575 171.28 284.038L194.413 291.748L114.5 368.499L129.922 384.972L154.807 362.192L278.533 406Z" fill="black"/>
<path fill-rule="evenodd" clip-rule="evenodd" d="M278.533 406C355.641 354.832 397 320.136 397 277.379C397 248.991 380.176 233.219 343.024 220.953L314.984 211.49L391.743 137.893L376.32 121.421L353.539 141.397L245.937 106C212.638 116.865 170.579 148.757 170.579 180.649C170.579 184.154 170.93 187.659 171.981 191.514C144.292 207.285 133.076 222.004 133.076 240.228C133.076 257.401 142.189 274.575 171.28 284.038L194.413 291.748L114.5 368.499L129.922 384.972L154.807 362.192L278.533 406ZM198.618 323.64L222.453 300.859L267.317 315.58C290.799 323.29 298.86 333.454 296.408 359.038L198.618 323.64ZM277.481 247.94L256.802 267.916L292.903 279.481C327.602 290.697 338.116 306.117 332.509 341.865L331.107 351.678L334.963 347.473C347.58 333.454 353.889 322.589 353.889 306.117C353.889 284.388 341.271 268.968 316.035 260.556L277.481 247.94ZM168.476 222.004C168.476 215.347 171.981 209.038 177.94 203.78C184.249 212.893 195.114 220.953 212.288 226.561L249.442 238.827L228.762 258.804L192.31 246.887C175.486 241.281 168.476 232.869 168.476 222.004ZM310.077 180.65L204.928 145.603V146.304C207.382 167.682 213.691 177.846 232.617 184.154L287.294 202.379L310.077 180.65Z" fill="black"/>
</svg>
