<svg width="512" height="512" viewBox="0 0 512 512" fill="none" xmlns="http://www.w3.org/2000/svg">
<path d="M512 0H0L0.000843881 512H512L512 0Z" fill="url(#paint0_radial_11512_920)"/>
<path d="M378.786 327.075C352.756 327.075 328.728 301.089 316.313 285.098C303.899 301.089 279.87 327.075 253.84 327.075C227.809 327.075 203.781 301.089 191.367 285.098C179.753 301.089 155.725 327.075 129.695 327.075C124.089 327.075 119.683 322.678 119.683 317.08C119.683 311.483 124.089 307.086 129.695 307.086C150.52 307.086 176.15 273.903 183.358 262.31C185.36 259.511 188.564 257.512 191.768 257.512C194.972 257.512 198.576 259.111 200.178 262.31C207.386 273.903 233.016 307.086 253.84 307.086C274.665 307.086 300.294 273.903 307.503 262.31C309.505 259.511 312.709 257.512 315.913 257.512C319.517 257.512 322.721 259.111 324.322 262.31C331.531 273.903 357.161 307.086 377.985 307.086C383.592 307.086 387.997 311.483 387.997 317.08C387.997 322.678 384.393 327.075 378.786 327.075Z" fill="white"/>
<path d="M378.786 383.676C352.756 383.676 328.728 357.69 316.313 341.698C303.899 357.69 279.87 383.676 253.84 383.676C227.809 383.676 203.781 357.69 191.367 341.698C179.753 357.69 155.725 383.676 129.695 383.676C124.089 383.676 119.683 379.279 119.683 373.681C119.683 368.085 124.089 363.686 129.695 363.686C150.52 363.686 176.15 330.504 183.358 318.91C185.36 316.111 188.564 314.113 191.768 314.113C194.972 314.113 198.576 315.712 200.178 318.91C207.386 330.504 233.016 363.686 253.84 363.686C274.665 363.686 300.294 330.504 307.503 318.91C309.505 316.111 312.709 314.113 315.913 314.113C319.517 314.113 322.721 315.712 324.322 318.91C331.531 330.504 357.161 363.686 377.985 363.686C383.592 363.686 387.997 368.085 387.997 373.681C387.997 379.279 384.393 383.676 378.786 383.676Z" fill="white"/>
<path d="M136.85 281.708C132.057 281.708 128.064 278.492 126.865 273.667C125.667 265.626 124.868 257.586 124.868 249.946C124.868 177.981 182.78 119.685 254.272 119.685C325.764 119.283 383.677 177.981 383.677 249.946C383.677 257.987 382.878 265.626 381.68 273.265C380.881 278.894 375.688 282.512 370.097 281.306C364.506 280.502 360.911 275.275 362.109 269.646C363.307 263.214 363.707 256.379 363.707 249.946C363.707 189.238 314.581 139.786 254.272 139.786C193.964 139.786 144.838 188.836 144.838 249.946C144.838 256.781 145.637 263.616 146.835 270.049C147.634 275.678 144.439 280.904 138.847 281.708C138.048 281.708 137.249 281.708 136.85 281.708Z" fill="white"/>
<defs>
<radialGradient id="paint0_radial_11512_920" cx="0" cy="0" r="1" gradientUnits="userSpaceOnUse" gradientTransform="translate(0.000826998 59.2593) rotate(43.8004) scale(515.41 516.228)">
<stop stop-color="#0058DD"/>
<stop offset="1" stop-color="#67C8FF"/>
</radialGradient>
</defs>
</svg>
