<svg width="512" height="512" viewBox="0 0 512 512" fill="none" xmlns="http://www.w3.org/2000/svg">
<path fill-rule="evenodd" clip-rule="evenodd" d="M0 0H512V512H0V0Z" fill="white"/>
<path d="M408.087 359.838C400.06 365.371 391.617 369.799 382.619 370.49C348.848 373.395 305.526 340.194 278.121 336.598C262.481 334.523 245.179 341.163 233.968 352.092C221.096 364.68 219.989 383.632 227.186 399.541C240.197 428.314 274.245 436.199 303.035 431.911C337.914 426.792 366.011 406.595 389.401 381.28C392.447 378.052 398.722 370.859 408.226 359.7L408.087 359.838Z" fill="#58C5F3"/>
<path d="M93.5016 285.138C93.6394 310.178 103.605 334.386 125.335 348.22C146.512 361.638 174.332 363.851 197.17 353.199C221.253 341.856 238.831 319.861 257.378 301.462C286.582 272.273 314.818 250.278 359.939 250.278C371.566 250.278 384.022 252.492 393.987 258.578C406.167 265.911 414.887 274.487 417.655 287.352C417.379 271.306 412.534 251.385 406.722 236.583C388.452 190.517 348.174 154.689 301.392 139.472C290.734 136.014 267.759 133.108 267.759 118.169V83.1699C267.759 83.1699 268.035 74.7314 259.316 80.5412C233.156 97.6951 210.595 134.354 190.111 146.389C159.246 159.669 132.809 182.633 115.231 211.268C102.082 232.433 93.3631 259.685 93.5016 285.138Z" fill="#58C5F3"/>
<path d="M254.748 265.636C244.783 275.458 234.541 284.173 224.16 292.888C215.994 299.804 207.69 306.445 199.247 313.085C193.987 317.097 179.454 328.302 176.132 317.65C171.565 302.572 181.946 282.651 191.773 271.999C205.059 257.474 234.541 241.842 253.918 253.601C259.177 256.783 258.762 261.762 254.748 265.774V265.636Z" fill="white"/>
<path d="M251.991 306.857C259.465 302.292 267.493 299.387 275.52 299.387C305.832 299.387 341.957 332.311 366.317 337.568C388.601 342.271 414.068 327.192 417.805 304.09C419.328 294.545 418.636 283.478 412.822 275.317C407.562 267.847 400.504 261.76 392.476 257.61C382.511 252.492 371.438 250.278 360.227 250.278C315.105 250.278 287.562 271.72 257.666 301.185C257.666 301.185 257.527 301.324 251.991 306.719V306.857Z" fill="#9DE2FF"/>
</svg>
