<svg width="512" height="512" viewBox="0 0 512 512" fill="none" xmlns="http://www.w3.org/2000/svg">
<path fill-rule="evenodd" clip-rule="evenodd" d="M0 0H512V512H0V0Z" fill="#2980FE"/>
<path d="M221.41 153H105.78C100.372 153 96 157.363 96 162.76V202.376C96 207.772 100.372 212.136 105.78 212.136H143V349.24C143 354.636 147.372 359 152.78 359H194.43C199.837 359 204.209 354.636 204.209 349.24V212.136H221.238C237.576 212.136 250.865 198.873 250.865 182.568C251.037 166.263 237.748 153 221.41 153Z" fill="white"/>
<path fill-rule="evenodd" clip-rule="evenodd" d="M333.861 153C288.523 153 251.722 189.529 251.722 234.531C251.722 234.639 251.722 234.746 251.723 234.853V348.412C251.723 353.794 256.106 358.145 261.529 358.145H305.482C310.904 358.145 315.288 353.794 315.288 348.412V313.989L315.339 314L315.538 314.031C317.73 314.546 319.78 314.917 322.088 315.26C325.318 315.718 328.663 316.005 332.009 316.062L333.861 316.062C335.476 316.062 337.033 316.005 338.591 315.948C381.737 313.486 416 277.988 416 234.531C416.058 189.529 379.257 153 333.861 153ZM338.591 252.28C337.091 252.681 335.476 252.909 333.861 252.909C333.417 252.909 333.026 252.903 332.586 252.852C323.114 252.233 315.594 244.528 315.345 235.018V234.531C315.345 224.397 323.651 216.153 333.861 216.153C344.071 216.153 352.377 224.397 352.377 234.531C352.377 243.063 346.551 250.219 338.591 252.28Z" fill="white"/>
</svg>
