<svg width="512" height="512" viewBox="0 0 512 512" fill="none" xmlns="http://www.w3.org/2000/svg">
<path fill-rule="evenodd" clip-rule="evenodd" d="M0 0H512V512H0V0Z" fill="white"/>
<path d="M339.922 164.898C339.922 121.775 302.071 86 255.992 86C209.904 86 172.045 121.792 172.045 164.889V190.116H137.5V371.495L255.967 426L374.5 371.511V190.916H339.955L339.93 164.889L339.922 164.898ZM214.834 164.898C214.834 144.567 232.948 128.297 255.992 128.297C279.035 128.297 297.132 144.567 297.132 164.898V190.116H214.843L214.834 164.898ZM326.764 342.224L255.958 374.78L185.178 342.249V233.894H326.755L326.764 342.224Z" fill="black"/>
</svg>
