<svg width="512" height="512" viewBox="0 0 512 512" fill="none" xmlns="http://www.w3.org/2000/svg">
<path fill-rule="evenodd" clip-rule="evenodd" d="M0 0H512V512H0V0Z" fill="#477BFF"/>
<path d="M155.605 188.07C211.052 129.977 300.949 129.977 356.395 188.07L363.068 195.062C365.841 197.967 365.841 202.676 363.068 205.581L340.241 229.498C338.855 230.95 336.607 230.95 335.221 229.498L326.038 219.877C287.357 179.349 224.643 179.349 185.962 219.877L176.128 230.18C174.742 231.633 172.494 231.633 171.108 230.18L148.281 206.263C145.508 203.358 145.508 198.649 148.281 195.744L155.605 188.07ZM403.604 237.533L423.921 258.82C426.693 261.724 426.693 266.434 423.921 269.339L332.313 365.321C329.541 368.226 325.046 368.226 322.273 365.322L257.256 297.2C256.562 296.473 255.439 296.473 254.746 297.2L189.729 365.321C186.957 368.226 182.462 368.226 179.69 365.322L88.0792 269.337C85.3069 266.433 85.3069 261.723 88.0792 258.819L108.396 237.532C111.168 234.628 115.663 234.628 118.435 237.532L183.454 305.655C184.147 306.381 185.271 306.381 185.964 305.655L250.979 237.532C253.751 234.628 258.246 234.627 261.019 237.532L326.037 305.655C326.731 306.381 327.854 306.381 328.547 305.655L393.565 237.533C396.337 234.629 400.832 234.629 403.604 237.533Z" fill="white"/>
</svg>
