<svg width="512" height="512" viewBox="0 0 512 512" fill="none" xmlns="http://www.w3.org/2000/svg">
<path fill-rule="evenodd" clip-rule="evenodd" d="M0 0H512V512H0V0Z" fill="black"/>
<path d="M348.369 284.228H253.614L312.881 207.141C317.266 201.423 313.198 193.152 305.988 193.152H190.188L164.94 225.989L250.314 225.944C257.191 225.944 253.954 231.503 251.761 234.351L204.949 295.234C198.167 304.048 204.451 316.817 215.572 316.817H323.573L348.369 284.251V284.228Z" fill="#F0A337"/>
<path d="M344.98 160.179C356.1 160.179 365.594 166.145 370.409 176.157C375.224 186.169 372.602 197.31 365.663 206.011L327.891 254.962H370.657L392.606 226.396C407.343 207.954 410.147 183.253 399.884 161.987C389.667 140.721 368.623 127.5 345.002 127.5H241.387L216.274 160.179H345.025H344.98Z" fill="#F0A337"/>
<path d="M166.998 352.298C155.877 352.298 146.383 346.331 141.568 336.32C136.754 326.309 139.376 315.167 146.315 306.466L186.053 254.984H143.286L119.394 286.104C104.656 304.545 101.854 329.247 112.116 350.513C122.333 371.779 143.377 385 166.998 385H270.568L295.681 352.32H166.998V352.298Z" fill="#F0A337"/>
</svg>
