<svg width="512" height="512" viewBox="0 0 512 512" fill="none" xmlns="http://www.w3.org/2000/svg">
<path fill-rule="evenodd" clip-rule="evenodd" d="M0 0H512V512H0V0Z" fill="#2461ED"/>
<path fill-rule="evenodd" clip-rule="evenodd" d="M293.645 249.032C242.354 221.337 179.947 185.423 132.979 156.149C119.121 146.174 126.155 125 142.904 125H375.304C388.268 125 396.94 139.443 390.443 150.372C374.826 177.323 352.028 211.54 332.984 238.669C322.761 253.23 306.102 255.732 293.645 249.032ZM218.84 258.025C268.432 284.44 337.932 324.612 387.314 354.988C402.573 364.398 396.493 386.97 378.672 386.97C349.508 386.97 302.119 386.979 254.976 386.986C208.32 386.993 161.904 387 133.634 387C119.389 387 112.088 372.229 118.137 361.926C138.582 327.114 161.559 291.973 180.663 265.738C189.157 254.035 206.443 251.414 218.84 258.025Z" fill="white"/>
</svg>
